<svg width="140" height="23" viewBox="0 0 140 23" fill="none" xmlns="http://www.w3.org/2000/svg">
<circle cx="8.5" cy="11.5" r="8" stroke="#333333"/>
<path d="M25.84 18.08C26.5867 18.08 27.2 17.96 27.68 17.72C28.1733 17.4667 28.42 17.0467 28.42 16.46C28.42 16.18 28.3733 15.94 28.28 15.74C28.2 15.54 28.06 15.36 27.86 15.2C27.66 15.04 27.3933 14.8867 27.06 14.74C26.74 14.5933 26.34 14.42 25.86 14.22C25.4733 14.06 25.1067 13.9 24.76 13.74C24.4133 13.5667 24.1067 13.3733 23.84 13.16C23.5733 12.9333 23.36 12.6667 23.2 12.36C23.04 12.0533 22.96 11.68 22.96 11.24C22.96 10.4 23.2733 9.72 23.9 9.2C24.54 8.68 25.4133 8.42 26.52 8.42C27.2267 8.42 27.8067 8.48 28.26 8.6C28.7267 8.72 29.0533 8.82667 29.24 8.92L28.94 10.08C28.78 10 28.5067 9.89333 28.12 9.76C27.7467 9.62667 27.1933 9.56 26.46 9.56C26.1667 9.56 25.8867 9.59333 25.62 9.66C25.3667 9.71333 25.14 9.80667 24.94 9.94C24.74 10.06 24.58 10.22 24.46 10.42C24.34 10.6067 24.28 10.84 24.28 11.12C24.28 11.4 24.3333 11.64 24.44 11.84C24.5467 12.04 24.7 12.22 24.9 12.38C25.1133 12.5267 25.3667 12.6667 25.66 12.8C25.9667 12.9333 26.3133 13.08 26.7 13.24C27.1 13.4 27.48 13.5667 27.84 13.74C28.2133 13.9 28.54 14.1 28.82 14.34C29.1 14.5667 29.3267 14.8467 29.5 15.18C29.6733 15.5 29.76 15.9067 29.76 16.4C29.76 17.3333 29.4067 18.04 28.7 18.52C28.0067 19 27.0533 19.24 25.84 19.24C24.9333 19.24 24.24 19.16 23.76 19C23.28 18.8533 22.96 18.74 22.8 18.66L23.14 17.48C23.18 17.5067 23.2667 17.5533 23.4 17.62C23.5333 17.6733 23.7133 17.74 23.94 17.82C24.1667 17.8867 24.4333 17.9467 24.74 18C25.06 18.0533 25.4267 18.08 25.84 18.08ZM33.5747 19H32.2747V8.66H33.5747V19ZM33.8747 5.54C33.8747 5.84667 33.7814 6.09333 33.5947 6.28C33.408 6.45333 33.1814 6.54 32.9147 6.54C32.648 6.54 32.4214 6.45333 32.2347 6.28C32.048 6.09333 31.9547 5.84667 31.9547 5.54C31.9547 5.23333 32.048 4.99333 32.2347 4.82C32.4214 4.63333 32.648 4.54 32.9147 4.54C33.1814 4.54 33.408 4.63333 33.5947 4.82C33.7814 4.99333 33.8747 5.23333 33.8747 5.54ZM37.0208 9.02C37.4074 8.91333 37.9074 8.79333 38.5208 8.66C39.1474 8.52667 39.9541 8.46 40.9408 8.46C42.2474 8.46 43.1941 8.84 43.7808 9.6C43.8474 9.54667 43.9741 9.46 44.1608 9.34C44.3608 9.20667 44.6074 9.07333 44.9008 8.94C45.1941 8.80667 45.5341 8.69333 45.9208 8.6C46.3208 8.50667 46.7608 8.46 47.2408 8.46C48.0274 8.46 48.6608 8.58 49.1408 8.82C49.6341 9.04667 50.0141 9.37333 50.2808 9.8C50.5474 10.2133 50.7274 10.7133 50.8208 11.3C50.9141 11.8867 50.9608 12.5267 50.9608 13.22V19H49.6608V13.64C49.6608 12.96 49.6274 12.3733 49.5608 11.88C49.5074 11.3733 49.3874 10.96 49.2008 10.64C49.0274 10.3067 48.7741 10.06 48.4408 9.9C48.1074 9.72667 47.6741 9.64 47.1408 9.64C46.7408 9.64 46.3741 9.68 46.0408 9.76C45.7208 9.82667 45.4408 9.91333 45.2008 10.02C44.9608 10.1267 44.7608 10.2333 44.6008 10.34C44.4541 10.4467 44.3474 10.5267 44.2808 10.58C44.4008 10.9267 44.4874 11.32 44.5408 11.76C44.6074 12.1867 44.6408 12.64 44.6408 13.12V19H43.3408V13.64C43.3408 12.96 43.3074 12.3733 43.2408 11.88C43.1874 11.3733 43.0674 10.96 42.8808 10.64C42.6941 10.3067 42.4274 10.06 42.0808 9.9C41.7474 9.72667 41.3008 9.64 40.7408 9.64C40.1141 9.64 39.5808 9.67333 39.1408 9.74C38.7141 9.80667 38.4408 9.86667 38.3208 9.92V19H37.0208V9.02ZM55.5864 17.14C55.7064 17.2333 55.8531 17.3333 56.0264 17.44C56.2131 17.5467 56.4264 17.6467 56.6664 17.74C56.9064 17.8333 57.1664 17.9133 57.4464 17.98C57.7264 18.0333 58.0197 18.06 58.3264 18.06C58.9664 18.06 59.4997 17.9533 59.9264 17.74C60.3664 17.5133 60.7197 17.2133 60.9864 16.84C61.2531 16.4533 61.4464 16.0067 61.5664 15.5C61.6864 14.98 61.7464 14.4333 61.7464 13.86C61.7464 12.5 61.4064 11.46 60.7264 10.74C60.0464 10.0067 59.1464 9.64 58.0264 9.64C57.3864 9.64 56.8664 9.67333 56.4664 9.74C56.0797 9.79333 55.7864 9.85333 55.5864 9.92V17.14ZM55.5864 22.7H54.2864V9.02C54.6731 8.88667 55.1664 8.76 55.7664 8.64C56.3664 8.52 57.1264 8.46 58.0464 8.46C58.8064 8.46 59.4931 8.58667 60.1064 8.84C60.7331 9.08 61.2664 9.43333 61.7064 9.9C62.1597 10.3667 62.5064 10.9333 62.7464 11.6C62.9997 12.2667 63.1264 13.02 63.1264 13.86C63.1264 14.6467 63.0197 15.3733 62.8064 16.04C62.6064 16.6933 62.3064 17.26 61.9064 17.74C61.5064 18.2067 61.0131 18.5733 60.4264 18.84C59.8531 19.1067 59.1931 19.24 58.4464 19.24C57.7664 19.24 57.1731 19.1467 56.6664 18.96C56.1731 18.76 55.8131 18.5733 55.5864 18.4V22.7ZM68.5666 19.18C68.1266 19.1667 67.7399 19.1067 67.4066 19C67.0866 18.9067 66.8132 18.76 66.5866 18.56C66.3732 18.3467 66.2066 18.08 66.0866 17.76C65.9799 17.4267 65.9266 17.0133 65.9266 16.52V3.72L67.2266 3.48V16.48C67.2266 16.8 67.2532 17.06 67.3066 17.26C67.3732 17.4467 67.4666 17.6 67.5866 17.72C67.7066 17.8267 67.8599 17.9067 68.0466 17.96C68.2466 18.0133 68.4799 18.06 68.7466 18.1L68.5666 19.18ZM70.4242 13.82C70.4242 12.9133 70.5509 12.1267 70.8042 11.46C71.0709 10.78 71.4109 10.2133 71.8242 9.76C72.2509 9.30667 72.7309 8.97333 73.2642 8.76C73.8109 8.53333 74.3709 8.42 74.9442 8.42C76.2109 8.42 77.2176 8.83333 77.9642 9.66C78.7242 10.4867 79.1042 11.76 79.1042 13.48C79.1042 13.5867 79.0976 13.6933 79.0842 13.8C79.0842 13.9067 79.0776 14.0067 79.0642 14.1H71.8042C71.8442 15.3667 72.1576 16.34 72.7442 17.02C73.3309 17.7 74.2642 18.04 75.5442 18.04C76.2509 18.04 76.8109 17.9733 77.2242 17.84C77.6376 17.7067 77.9376 17.5933 78.1242 17.5L78.3642 18.62C78.1776 18.7267 77.8242 18.8533 77.3042 19C76.7976 19.1467 76.1976 19.22 75.5042 19.22C74.5976 19.22 73.8242 19.0867 73.1842 18.82C72.5442 18.5533 72.0176 18.18 71.6042 17.7C71.1909 17.22 70.8909 16.6533 70.7042 16C70.5176 15.3333 70.4242 14.6067 70.4242 13.82ZM77.7642 13C77.7376 11.92 77.4842 11.08 77.0042 10.48C76.5242 9.88 75.8442 9.58 74.9642 9.58C74.4976 9.58 74.0776 9.67333 73.7042 9.86C73.3442 10.0467 73.0242 10.3 72.7442 10.62C72.4776 10.9267 72.2642 11.2867 72.1042 11.7C71.9576 12.1133 71.8709 12.5467 71.8442 13H77.7642Z" fill="#333333"/>
<rect x="86.5" y="3.5" width="31" height="16" rx="8" stroke="#333333"/>
<circle cx="131.5" cy="11.5" r="8" stroke="#333333"/>
</svg>
