<svg width="225" height="21" viewBox="0 0 225 21" fill="none" xmlns="http://www.w3.org/2000/svg">
<g id="royal-talens-bv-logo-vector 1" clip-path="url(#clip0_1_588)">
<path id="Vector" d="M13.5516 20.1447L11.0432 20.8058L5.57736 12.5614L2.50747 12.4836L2.65722 20.4558L0.18634 20.6502V0.505804L4.97835 0.350245C7.14974 0.272467 8.83443 0.778028 9.99499 1.78914C11.1556 2.83914 11.7546 4.23914 11.7546 5.91136C11.7546 7.03914 11.3802 8.12803 10.6689 9.21692C9.95756 10.3447 8.94674 11.2003 7.59899 11.7447V11.8225L13.5516 20.1447ZM2.61978 1.94469L2.47003 11.1225L6.21379 10.9669C7.56155 10.578 9.17137 8.94469 9.17137 6.53358C9.17137 3.85024 7.48667 2.10025 4.67885 2.02247L2.61978 1.94469ZM25.1947 20.8058C19.8036 20.8058 15.5732 16.6447 15.5732 10.4225C15.5732 4.7058 20.3652 0.0391388 25.7562 0.0391388C31.1847 0.0391388 35.4151 4.23913 35.4151 10.4614C35.3777 16.2169 30.3611 20.8058 25.1947 20.8058ZM25.569 19.1336C29.7995 19.1336 32.7571 15.8669 32.7571 10.6558C32.7571 5.44469 29.3128 1.71136 25.3818 1.71136C21.1888 1.71136 18.1938 4.93913 18.1938 10.228C18.1938 15.3225 21.713 19.1336 25.569 19.1336ZM46.01 20.4558L43.5391 20.6502V11.0836L36.2388 0.700249L38.8968 0.350245L45.0366 9.64469L51.3635 0.350245L53.4975 0.700249L45.9725 11.2002L46.01 20.4558ZM70.2695 20.4169L67.6863 20.6891L65.777 15.3614L56.4551 15.5558L54.5457 20.6502L52.4118 20.4169L60.7604 0.350245L61.8835 0.0780241L70.2695 20.4169ZM61.0224 3.81135L57.1664 13.7669L65.178 13.9225L61.0224 3.81135ZM78.8428 20.4558L73.7138 20.6114V0.54469L76.1847 0.350245L76.0724 8.86691L76.1472 18.9002L84.3835 18.5891L84.1963 20.4947L78.8428 20.4558ZM135.785 20.4558L133.314 20.6502V2.02247L125.827 2.29469L126.014 0.350245H134.325L143.048 0.155801L142.861 2.21692L135.823 1.94469L135.673 9.33358L135.785 20.4558ZM159.633 20.4169L157.05 20.6891L155.141 15.3614L145.819 15.5558L143.909 20.6502L141.775 20.4169L150.124 0.350245L151.247 0.0780241L159.633 20.4169ZM150.386 3.81135L146.53 13.7669L154.542 13.9225L150.386 3.81135ZM168.206 20.4558L163.077 20.6114V0.54469L165.548 0.350245L165.436 8.82803L165.511 18.8614L173.747 18.5503L173.56 20.4558H168.206ZM180.523 20.4558L177.266 20.6114V0.505804L181.908 0.350245H187.674L187.487 2.29469L179.737 1.98358L179.55 9.60581L186.289 9.41136L185.877 11.3169L179.512 11.1225L179.7 18.8614L188.31 18.5891L188.123 20.4947H180.523V20.4558ZM194.413 20.4558L192.204 20.6502L192.391 0.54469L194.188 0.350245L206.131 15.9058L205.906 0.54469L208.115 0.350245L207.853 20.4558L207.029 20.6114L194.151 4.35581L194.413 20.4558ZM217.849 20.6502C216.725 20.6502 215.602 20.4169 214.517 19.9502C213.431 19.4836 212.607 18.9002 212.008 18.3169L213.206 16.9558C214.704 18.1225 216.314 19.0169 218.485 19.0169C220.881 19.0169 222.528 17.8891 222.528 15.6725C222.528 14.5058 222.116 13.6114 221.368 13.0669C220.619 12.5225 219.571 11.978 218.298 11.4336C215.64 10.3447 212.795 9.21692 212.795 5.52247C212.795 2.56692 215.378 0.194692 218.897 0.194692C220.731 0.194692 222.641 0.739139 223.764 1.59469L223.314 3.34469C222.191 2.80025 220.02 1.98358 218.373 1.98358C216.538 1.98358 215.003 2.87802 215.003 4.82247C215.003 6.06691 215.415 6.96135 216.164 7.5058C216.913 8.08913 217.961 8.63358 219.196 9.17803C221.817 10.3447 224.737 11.278 224.737 14.8947C224.775 18.7058 221.443 20.6502 217.849 20.6502Z" fill="#333333"/>
<path id="Vector_2" d="M95.2787 0.0776672V20.5721H115.008V0.0776672H95.2787ZM105.125 19.7166C100.108 19.7166 96.0649 15.5166 96.0649 10.3054C96.0649 5.09434 100.108 0.894336 105.125 0.894336C110.141 0.894336 114.185 5.09434 114.185 10.3054C114.185 15.5166 110.141 19.7166 105.125 19.7166ZM97.188 11.9777C97.3752 12.911 98.2737 15.1666 99.8086 14.6221C100.932 14.1943 101.007 13.1054 101.231 11.861C101.418 10.6943 101.718 8.47767 102.092 8.011C102.13 7.97212 102.092 7.93322 102.055 7.93322C101.156 7.97211 100.557 10.0721 100.22 11.0443C99.584 12.9499 97.6373 13.1055 97.3003 11.9388C97.3003 11.9388 97.188 11.9388 97.188 11.9777ZM112.912 8.67211C112.687 8.16655 112.537 7.97211 112.313 7.50544C112.5 6.961 112.725 6.22212 112.687 5.91101C112.537 4.58878 110.815 5.98877 111.19 7.69989C111.302 8.16655 111.414 8.51656 111.489 8.82767C110.965 9.91656 110.74 9.72211 110.778 9.33322C110.815 9.061 110.853 8.51655 110.853 8.51655C111.002 7.46656 110.478 7.38878 110.141 7.62212C109.954 7.73878 109.692 8.12767 109.58 8.361L109.692 7.85545L108.756 8.24434L108.457 9.83877C108.082 10.7332 107.671 10.8888 107.408 10.8499C107.334 10.811 107.259 10.7721 107.184 10.7332C108.045 9.95545 108.344 9.29434 108.27 8.82767C108.195 8.32212 107.82 8.32211 107.558 8.39989C106.884 8.63323 106.323 9.33322 106.173 10.3054C106.136 10.6166 106.136 10.9277 106.21 11.161C105.611 12.1332 105.574 11.5888 105.649 11.1999C105.836 10.3054 106.435 6.611 106.435 6.611L105.499 6.99989C105.499 6.99989 104.938 10.2277 104.713 11.4721C104.264 12.5999 104.151 12.1721 104.226 11.7832C104.376 10.8888 104.601 9.72211 104.601 9.72211L103.702 10.0721C103.702 10.0721 103.627 10.3443 103.552 10.811C103.44 10.461 103.215 10.2277 102.916 10.1888C102.354 10.111 101.755 10.8888 101.568 11.8221C101.381 12.7943 101.681 13.6499 102.242 13.6888C102.654 13.7277 103.066 13.3777 103.328 12.8332C103.478 13.1832 103.852 13.1443 104.077 12.9888C104.301 12.8332 104.526 12.4443 104.676 12.1332C104.75 12.5999 105.125 12.5999 105.387 12.4443C105.799 12.211 106.173 11.6666 106.36 11.4332C106.51 11.7054 106.772 11.861 107.072 11.8221C107.483 11.7832 107.97 11.2388 108.344 10.6166L108.195 11.3555L109.131 10.9666L109.468 9.17767C109.917 8.04989 110.067 8.43878 110.029 8.78878C110.029 8.78878 109.992 9.0999 109.917 9.60545C109.804 10.6555 110.254 10.6943 110.591 10.4999C111.077 10.1888 111.377 9.60544 111.639 9.061C111.826 9.52766 112.051 9.91656 112.238 10.4999C113.586 14.4277 108.494 14.0388 106.473 14.1166C104.601 14.1943 104.413 15.8666 104.226 17.1499C111.19 17.2277 114.334 11.8999 112.912 8.67211ZM103.403 11.6666C103.365 12.1332 103.066 12.6388 102.804 12.6388C102.542 12.6388 102.354 12.2499 102.429 11.7054C102.504 11.2388 102.729 10.811 102.991 10.811C103.253 10.811 103.44 11.1999 103.403 11.6666ZM107.072 10.4221C107.034 10.3054 107.034 10.1888 107.034 10.0332C107.072 9.56655 107.296 9.061 107.596 8.98323C107.708 8.94434 107.82 8.98323 107.82 9.17767C107.82 9.60545 107.408 10.111 107.072 10.4221ZM112.163 7.15544C112.126 7.11656 112.126 7.07767 112.126 7.03878C111.564 5.63878 112.313 5.44433 112.388 6.02767C112.388 6.33878 112.313 6.76655 112.163 7.15544ZM106.098 3.14989C105.986 4.04434 105.911 5.911 104.226 6.18322C101.456 6.64989 97.7496 7.89434 97.1506 10.6943C97.1506 10.7332 97.0383 10.7332 97.0383 10.7332C96.9634 6.33878 100.745 3.14989 106.098 3.14989Z" fill="#FF0000"/>
</g>
<defs>
<clipPath id="clip0_1_588">
<rect width="225" height="21" fill="white"/>
</clipPath>
</defs>
</svg>
