<svg width="197" height="55" viewBox="0 0 197 55" fill="none" xmlns="http://www.w3.org/2000/svg">
<g id="hahnemuehle-logo-vector 1" clip-path="url(#clip0_1_577)">
<path id="Vector" d="M62.5745 48.9001V29.5335H60.1161V37.8668H51.6919V29.5335H49.2335V48.9001H51.6919V40.1335H60.1488V48.9001H62.5745ZM77.1938 39.0335C77.1938 36.0001 75.8826 34.4335 71.8836 34.4335C70.3758 34.4335 68.6057 34.6668 67.3274 35.0668L67.5568 37.0335C68.6713 36.8001 70.4086 36.5668 71.7197 36.5668C73.9814 36.5668 74.7354 37.2001 74.7354 38.9668V41.1668H71.0641C68.2452 41.1668 66.8029 42.2335 66.8029 45.1668C66.8029 47.6668 67.9174 49.2335 70.5069 49.2335C72.1786 49.2335 73.7848 48.7668 75.0304 47.9001L75.1943 48.9668H77.2265L77.1938 39.0335ZM74.7681 45.9668C73.6864 46.6668 72.3753 47.1335 71.1625 47.1335C69.458 47.1335 69.1958 46.5335 69.1958 45.1001C69.1958 43.6668 69.753 43.2001 71.228 43.2001H74.7681V45.9668ZM92.2064 48.9001V38.0335C92.2064 35.8668 91.4197 34.4335 89.1908 34.4335C87.5846 34.4335 85.3557 35.1335 83.8151 35.9335V28.6335L81.4222 28.9668V48.9335H83.8151V38.2668C85.3229 37.5001 87.4535 36.8001 88.4696 36.8001C89.3547 36.8001 89.8136 37.1668 89.8136 38.1001V48.9335H92.2064V48.9001ZM107.449 48.9001V38.0335C107.449 35.8668 106.662 34.4335 104.433 34.4335C102.794 34.4335 100.368 35.1668 98.8277 35.9668L98.5983 34.7668H96.6315V48.9335H99.0244V38.2335C100.532 37.4668 102.663 36.8001 103.679 36.8001C104.564 36.8001 105.023 37.1668 105.023 38.1001V48.9335H107.449V48.9001ZM113.578 43.9668V42.8001H121.871V39.8335C121.871 36.9001 120.757 34.4668 116.627 34.4668C112.496 34.4668 111.185 36.8335 111.185 39.7668V44.0001C111.185 47.2001 112.595 49.2001 116.692 49.2001C118.429 49.2001 120.298 48.9001 121.609 48.4001L121.314 46.4335C119.773 46.8335 118.298 47.1001 116.922 47.1001C114.201 47.1001 113.578 46.2001 113.578 43.9668ZM113.578 39.5668C113.578 37.5668 114.365 36.5001 116.627 36.5001C118.888 36.5001 119.544 37.6335 119.544 39.5668V40.7335H113.578V39.5668ZM144.882 48.9001V38.0335C144.882 35.8668 144.095 34.4335 141.866 34.4335C140.129 34.4335 137.769 35.1335 136.097 35.9668C135.704 35.0001 134.884 34.4335 133.442 34.4335C131.803 34.4335 129.377 35.1668 127.837 35.9668L127.607 34.7668H125.641V48.9335H128.034V38.2335C129.541 37.4668 131.672 36.8001 132.688 36.8001C133.573 36.8001 134.032 37.1668 134.032 38.1001V48.9335H136.425V38.2335C137.933 37.4668 139.932 36.8001 141.079 36.8001C141.964 36.8001 142.423 37.1668 142.423 38.1001V48.9335H144.882V48.9001ZM149.176 34.7668V45.6335C149.176 47.8001 149.962 49.2335 152.191 49.2335C153.83 49.2335 156.256 48.5001 157.797 47.7001L158.026 48.9001H159.993V34.7335H157.6V45.4335C156.092 46.2001 153.961 46.8668 152.945 46.8668C152.06 46.8668 151.601 46.5001 151.601 45.5668V34.7335L149.176 34.7668ZM151.11 32.6001H153.339V30.1668H151.11V32.6001ZM156.059 32.6001H158.288V30.1668H156.059V32.6001ZM175.366 48.9001V38.0335C175.366 35.8668 174.579 34.4335 172.35 34.4335C170.744 34.4335 168.515 35.1335 166.975 35.9335V28.6335L164.582 28.9668V48.9335H166.975V38.2668C168.482 37.5001 170.613 36.8001 171.629 36.8001C172.514 36.8001 172.973 37.1668 172.973 38.1001V48.9335H175.366V48.9001ZM182.217 48.9001V28.6001L179.824 28.9335V48.9001H182.217ZM188.445 43.9668V42.8001H196.738V39.8335C196.738 36.9001 195.623 34.4668 191.493 34.4668C187.363 34.4668 186.052 36.8335 186.052 39.7668V44.0001C186.052 47.2001 187.461 49.2001 191.559 49.2001C193.296 49.2001 195.164 48.9001 196.475 48.4001L196.18 46.4335C194.64 46.8335 193.165 47.1001 191.788 47.1001C189.067 47.1001 188.445 46.2001 188.445 43.9668ZM188.445 39.5668C188.445 37.5668 189.231 36.5001 191.493 36.5001C193.755 36.5001 194.41 37.6335 194.41 39.5668V40.7335H188.445V39.5668Z" fill="#6F7072"/>
<path id="Vector_2" d="M38.5478 22.0331C38.3183 19.4331 37.2038 17.1331 35.3682 15.6331C33.7293 14.2664 31.6314 13.5997 29.5992 13.8664C27.108 14.1331 25.0757 16.0664 23.7973 17.6331C22.3551 19.3664 21.3717 21.2664 20.8473 22.6331C19.5689 21.4997 18.7494 20.1664 18.3561 18.5331C18.0283 17.1331 17.6677 14.3664 17.4055 12.3664C17.2088 11.0331 17.1105 9.9664 17.0121 9.59973C16.7499 8.3664 15.9304 6.2664 15.406 5.1664C16.5532 4.93307 17.4383 4.63306 18.2905 3.79973C19.1428 2.93306 20.5195 1.59973 20.5522 1.59973L21.3717 0.79973L20.2245 0.699734C19.995 0.6664 14.1604 0.233066 13.177 0.266399C12.4887 0.299733 11.6364 0.666398 10.9481 1.33307C10.3908 1.83307 9.66972 2.69973 9.14526 4.09973C8.6208 4.19973 3.86789 5.13306 3.86789 5.13306V6.1664L4.26123 6.2664C5.73627 6.59973 7.60466 7.39973 8.71913 8.23306L8.65358 8.2664C7.703 8.89973 6.42463 9.7664 5.34293 10.7664C3.96622 12.0331 3.31065 13.1664 3.40899 14.1664C3.47454 14.8664 3.76955 15.3997 4.26123 15.7664C4.65458 16.0331 5.14626 16.1664 5.70349 16.1664C5.04792 17.3331 4.68735 18.2331 4.42512 19.0997C4.09734 20.2997 3.96622 21.4997 4.13012 22.9997C4.32679 25.2997 5.47404 27.5997 6.78519 29.5997H0V45.5664C0 46.9997 0.295009 48.3664 0.917805 49.5664C1.47504 50.6997 2.26173 51.6664 3.24509 52.4997C5.01514 53.9664 7.37521 54.8331 9.57138 54.8331C11.7676 54.8331 14.1276 53.9664 15.8977 52.4997C16.881 51.6997 17.6677 50.6997 18.225 49.5664C18.7822 48.4664 19.0772 47.2664 19.1428 45.9997C19.2739 43.8664 19.995 40.6997 21.1095 38.2331C22.3551 35.4331 24.0268 33.9664 26.1574 33.7664C27.3047 33.6664 28.4519 33.8331 29.4353 34.2997C30.2547 34.6664 31.0414 35.2331 31.6642 35.9331C32.8115 37.1664 33.3687 38.5664 33.4343 38.8664V38.8331L33.8276 40.1331L34.3849 38.9997C35.2699 37.1331 36.5155 34.1997 37.4333 30.7664C38.4494 27.4997 38.7772 24.5331 38.5478 22.0331ZM7.57188 30.5664L7.80133 30.8664C8.52246 31.8331 9.27637 32.6664 9.89917 33.3331L11.3087 34.8664C13.5704 37.2664 15.3404 39.1664 16.1599 40.5664C17.2088 42.3664 17.9627 44.1331 18.225 45.4664C18.2577 45.5997 18.2905 45.8664 18.2905 45.9664C18.1594 48.8331 16.6844 50.6331 15.406 51.6997C13.7998 53.0331 11.6692 53.8331 9.70249 53.8331C7.70299 53.8331 5.60516 53.0664 3.999 51.6997C2.68785 50.5997 1.11448 48.6331 1.11448 45.5664V30.6331L7.57188 30.5664ZM9.27637 9.0664L9.50582 8.89973C9.66972 9.13306 9.76805 9.33306 9.76805 9.5664C9.83361 10.3664 9.11248 11.2331 8.22745 12.3664C7.63744 13.0997 6.98186 13.9664 6.32629 14.9664C5.7035 15.1331 5.17903 15.0664 4.81847 14.7997C4.58902 14.5997 4.42513 14.3331 4.39235 13.9664C4.32679 13.2997 4.88403 12.4331 5.9985 11.3997C7.0802 10.5331 8.35857 9.69973 9.27637 9.0664ZM36.6138 30.5331C35.8927 33.2664 34.9421 35.7331 34.0898 37.4997C33.7621 36.8331 33.2704 36.0664 32.582 35.3331C31.402 33.9997 29.3042 32.4997 26.1574 32.7664C24.8135 32.8997 23.6007 33.4664 22.5517 34.3997C21.6995 35.1997 20.9456 36.3664 20.29 37.7997C19.5361 39.5331 19.0116 41.4997 18.6183 43.3331C18.225 42.2997 17.7005 41.1997 17.0121 40.0331C16.1271 38.5331 14.3243 36.5997 12.0298 34.1664L10.6203 32.6331C9.11248 30.9997 7.83411 29.3331 6.91631 27.7331C5.90017 25.9664 5.31015 24.2997 5.17904 22.8664C5.04792 21.4997 5.14626 20.4331 5.44126 19.3331C5.70349 18.3331 6.19517 17.2997 7.0802 15.7997C7.70299 14.6997 8.39135 13.8331 9.04692 13.0664C10.0958 11.7664 10.8825 10.7331 10.7842 9.53307C10.6859 8.53307 9.86639 7.59973 8.26023 6.73306C7.57188 6.3664 6.78519 6.03307 6.06406 5.7664C7.60466 5.4664 9.60416 5.0664 9.60416 5.0664L9.89917 4.99973L9.9975 4.73306C10.7186 2.3664 12.3248 1.29973 13.2098 1.2664C13.8326 1.23307 16.8155 1.4664 18.9789 1.59973C18.52 2.03307 17.9627 2.59973 17.5366 3.03307C16.8483 3.73307 16.0616 3.93307 14.9143 4.19973L13.7998 4.4664L14.226 5.09973C14.4554 5.43307 15.6354 8.23306 15.996 9.79973C16.0943 10.1331 16.2255 11.2331 16.3566 12.4664C16.6188 14.5997 16.9794 17.2997 17.3399 18.7664C17.8316 20.8664 18.8805 22.4997 20.6834 23.8664L21.2734 24.2997L21.3717 23.9331C21.8634 22.2997 23.2073 19.8997 24.5185 18.2997C25.6657 16.8664 27.5341 15.1331 29.6647 14.8664C31.402 14.6331 33.2376 15.2331 34.6799 16.4331C36.286 17.7664 37.3022 19.7997 37.4988 22.1331C37.7611 24.4997 37.4333 27.3331 36.6138 30.5331ZM13.2754 5.89973C13.2098 5.09973 12.4887 4.4664 11.6692 4.5664C10.8825 4.63306 10.2597 5.3664 10.3581 6.19973C10.4236 6.99973 11.1448 7.63307 11.9642 7.53307C12.7509 7.43307 13.3409 6.69973 13.2754 5.89973ZM12.2592 5.99973C12.292 6.23307 12.0953 6.4664 11.8659 6.49973C11.6364 6.53307 11.407 6.33307 11.3742 6.09973C11.3414 5.8664 11.5381 5.63307 11.7676 5.59973C12.0298 5.53307 12.2265 5.69973 12.2592 5.99973ZM8.42413 47.4331V47.6664C8.42413 47.9997 8.39135 48.1664 7.76855 48.1664C7.47354 48.1664 7.0802 48.1331 6.75241 48.0331L6.65408 48.7331C6.94909 48.8331 7.34243 48.8997 7.80133 48.8997C8.98137 48.8997 9.24359 48.4664 9.24359 47.7331V47.3331C9.24359 46.7331 9.01414 46.3331 8.22745 46.2997C7.998 46.2997 7.86689 46.2664 7.63744 46.2664V45.1664H9.17804V44.4664H6.78519V46.9331C7.11298 46.9331 7.37521 46.9331 7.83411 46.9664C8.35857 46.9997 8.42413 47.0997 8.42413 47.4331ZM3.5401 48.7997H6.09684V48.0997H5.21181V44.4664H4.49068L3.40899 44.7997L3.60566 45.4997L4.42512 45.2664V48.0997H3.57288V48.7997H3.5401ZM9.89917 47.4664V47.7331C9.89917 48.4997 10.2597 48.8664 11.3087 48.8664C12.3576 48.8664 12.7181 48.5664 12.7181 47.7331V47.4664C12.7181 47.0997 12.587 46.8331 12.0953 46.5997C12.5215 46.3664 12.6198 46.0997 12.6198 45.7664V45.4664C12.6198 44.7997 12.292 44.3997 11.3414 44.3997C10.3908 44.3997 10.0631 44.7997 10.0631 45.4664V45.7664C10.0631 46.0997 10.1942 46.3664 10.5875 46.5997C10.0303 46.8331 9.89917 47.0997 9.89917 47.4664ZM11.8331 45.7664C11.8331 45.9997 11.7676 46.0997 11.3087 46.2997C10.8498 46.0997 10.7842 46.0331 10.7842 45.7664V45.4997C10.7842 45.2331 10.8825 45.0997 11.3087 45.0997C11.7348 45.0997 11.8331 45.2664 11.8331 45.4997V45.7664ZM10.6859 47.5331C10.6859 47.2664 10.7514 47.1331 11.3087 46.8997C11.8659 47.1331 11.9314 47.2331 11.9314 47.5331V47.7331C11.9314 48.0664 11.7676 48.1664 11.3087 48.1664C10.8498 48.1664 10.6859 48.0331 10.6859 47.7331V47.5331ZM14.6849 44.4664L13.1443 47.0664V47.7997H15.0126V48.7664H15.7993V47.7997H16.3238V47.0997H15.7993V44.4331H14.6849V44.4664ZM13.9637 47.1331L15.0126 45.2331V47.1331H13.9637Z" fill="#E1001A"/>
</g>
<defs>
<clipPath id="clip0_1_577">
<rect width="197" height="55" fill="white"/>
</clipPath>
</defs>
</svg>
