<svg width="209" height="26" viewBox="0 0 209 26" fill="none" xmlns="http://www.w3.org/2000/svg">
<g id="Frame" clip-path="url(#clip0_1_581)">
<path id="Vector" fill-rule="evenodd" clip-rule="evenodd" d="M126.092 25.9242H123.835V0.0757862H126.092V25.9242ZM179.734 0.0757862V21.7426L159.571 0.0757862V0H157.239V25.9242H159.571V4.02889L179.734 25.9242V25.8473V25.9242H182.066V0.0757862H179.734ZM152.123 0.0757862V0.151572L128.198 25.8473H131.658L152.123 3.26881V18.2442H142.042V20.6014H152.123V25.8473H154.378V0.0757862H152.123Z" fill="black"/>
<path id="Vector_2" fill-rule="evenodd" clip-rule="evenodd" d="M114.206 14.1384H114.356C118.118 14.1384 121.201 10.7181 121.201 6.91764C121.201 3.2688 118.342 0.227357 114.805 0.0757862V0H114.43H95.9239V25.9242H98.2565V2.35715H114.656C115.763 2.50307 116.779 3.04688 117.513 3.88664C118.247 4.7264 118.649 5.80446 118.644 6.91876C118.644 9.35169 116.763 11.7077 114.28 11.8604H111.121V14.4449H111.195L117.891 25.8484H121.579L114.206 14.1384ZM81.0271 0L68.464 0.0757862V25.9231H87.3467C90.9572 25.6946 93.7411 22.6531 93.7411 19.0032C93.7411 16.4956 92.462 14.3669 90.5059 13.1499C92.4608 11.9351 93.7411 9.42636 93.7411 6.91764C93.7411 3.2688 90.9572 0.303142 87.4215 0.0757862V0H81.0271ZM81.0271 23.5659H70.7954V2.35715H87.2707C88.3779 2.5031 89.3938 3.04694 90.1278 3.88673C90.8618 4.72652 91.2635 5.80456 91.2577 6.91876C91.2577 9.42748 89.2268 11.7835 86.7434 11.8604V14.4427C89.2257 14.4427 91.2577 16.4956 91.2577 19.0032C91.2577 21.3603 89.4524 23.2605 87.1959 23.5659H81.0271Z" fill="black"/>
<path id="Vector_3" fill-rule="evenodd" clip-rule="evenodd" d="M0 0V25.8472H2.33255L22.796 3.87731V18.2442H12.8648V20.6013H22.796V25.8472H25.0537V0H0ZM2.33255 22.3499V13.5321H10.6082L2.33255 22.3499ZM2.33255 11.175V2.35603H21.1404L12.8648 11.175H2.33255Z" fill="#00ACEC"/>
<path id="Vector_4" fill-rule="evenodd" clip-rule="evenodd" d="M196.21 0C189.139 0 183.345 5.77752 183.345 12.9247C183.345 20.0686 189.139 25.9242 196.21 25.9242C203.281 25.9242 209 20.0686 209 12.9247C209 5.77752 203.281 0 196.21 0ZM196.21 23.1859C190.642 23.1859 186.204 18.6254 186.204 13.0763C186.204 7.45037 190.642 2.96566 196.21 2.96566C201.702 2.96566 206.216 7.45037 206.216 13.0763C206.216 18.6254 201.702 23.1859 196.21 23.1859Z" fill="black"/>
<path id="Vector_5" fill-rule="evenodd" clip-rule="evenodd" d="M58.758 2.50868V0.151531H33.5546V25.9241H35.8123V14.0626H50.66L39.7234 25.8472H43.1842L63.5728 3.26877V18.2442H53.5667V20.6013H63.5728L63.7225 25.9999H66.0551L65.9054 0.0757446H63.5728V0.151531L52.8473 11.7066H35.8123V2.50868H58.758Z" fill="black"/>
</g>
<defs>
<clipPath id="clip0_1_581">
<rect width="209" height="26" fill="white"/>
</clipPath>
</defs>
</svg>
